<mxfile host="65bd71144e">
    <diagram id="yUHTH0i6mRS28Ki_BKCU" name="Page-1">
        <mxGraphModel dx="2197" dy="1568" grid="1" gridSize="10" guides="1" tooltips="1" connect="1" arrows="1" fold="1" page="1" pageScale="1" pageWidth="850" pageHeight="1100" math="0" shadow="0">
            <root>
                <mxCell id="0"/>
                <mxCell id="1" parent="0"/>
                <mxCell id="Q-MIs8afRrduFS1menM--12" value="" style="edgeStyle=orthogonalEdgeStyle;rounded=0;orthogonalLoop=1;jettySize=auto;html=1;entryX=1;entryY=0.5;entryDx=0;entryDy=0;dashed=1;endArrow=open;endFill=0;exitX=0;exitY=0.5;exitDx=0;exitDy=0;" parent="1" source="qJp3A6C8HjUP3sD0QY61-12" target="ootQnw3ZIX1wVPfmf1-8-32" edge="1">
                    <mxGeometry relative="1" as="geometry">
                        <Array as="points">
                            <mxPoint x="110" y="-21"/>
                        </Array>
                    </mxGeometry>
                </mxCell>
                <mxCell id="Q-MIs8afRrduFS1menM--30" style="edgeStyle=orthogonalEdgeStyle;rounded=0;orthogonalLoop=1;jettySize=auto;html=1;startArrow=diamondThin;startFill=1;endArrow=none;endFill=0;entryX=0.5;entryY=0;entryDx=0;entryDy=0;" parent="1" source="qJp3A6C8HjUP3sD0QY61-11" target="ootQnw3ZIX1wVPfmf1-8-18" edge="1">
                    <mxGeometry relative="1" as="geometry">
                        <Array as="points">
                            <mxPoint x="179" y="120"/>
                            <mxPoint x="320" y="120"/>
                        </Array>
                    </mxGeometry>
                </mxCell>
                <mxCell id="Q-MIs8afRrduFS1menM--34" style="edgeStyle=orthogonalEdgeStyle;rounded=0;orthogonalLoop=1;jettySize=auto;html=1;entryX=0.5;entryY=0;entryDx=0;entryDy=0;startArrow=diamondThin;startFill=1;endArrow=none;endFill=0;" parent="1" source="qJp3A6C8HjUP3sD0QY61-11" target="qJp3A6C8HjUP3sD0QY61-20" edge="1">
                    <mxGeometry relative="1" as="geometry">
                        <mxPoint x="-30" y="90" as="sourcePoint"/>
                        <Array as="points">
                            <mxPoint x="180" y="120"/>
                            <mxPoint x="-730" y="120"/>
                        </Array>
                    </mxGeometry>
                </mxCell>
                <mxCell id="Q-MIs8afRrduFS1menM--36" style="edgeStyle=orthogonalEdgeStyle;rounded=0;orthogonalLoop=1;jettySize=auto;html=1;startArrow=diamondThin;startFill=1;endArrow=none;endFill=0;entryX=0.5;entryY=0;entryDx=0;entryDy=0;" parent="1" source="qJp3A6C8HjUP3sD0QY61-11" target="qJp3A6C8HjUP3sD0QY61-38" edge="1">
                    <mxGeometry relative="1" as="geometry">
                        <Array as="points">
                            <mxPoint x="181" y="120"/>
                            <mxPoint x="-340" y="120"/>
                        </Array>
                    </mxGeometry>
                </mxCell>
                <mxCell id="Q-MIs8afRrduFS1menM--37" style="edgeStyle=orthogonalEdgeStyle;rounded=0;orthogonalLoop=1;jettySize=auto;html=1;startArrow=diamondThin;startFill=1;endArrow=none;endFill=0;entryX=0.5;entryY=0;entryDx=0;entryDy=0;" parent="1" source="qJp3A6C8HjUP3sD0QY61-11" target="ootQnw3ZIX1wVPfmf1-8-26" edge="1">
                    <mxGeometry relative="1" as="geometry">
                        <Array as="points">
                            <mxPoint x="180" y="120"/>
                            <mxPoint x="780" y="120"/>
                        </Array>
                    </mxGeometry>
                </mxCell>
                <mxCell id="Q-MIs8afRrduFS1menM--38" style="edgeStyle=orthogonalEdgeStyle;rounded=0;orthogonalLoop=1;jettySize=auto;html=1;entryX=0.5;entryY=0;entryDx=0;entryDy=0;startArrow=diamondThin;startFill=1;endArrow=none;endFill=0;" parent="1" source="qJp3A6C8HjUP3sD0QY61-11" target="qJp3A6C8HjUP3sD0QY61-34" edge="1">
                    <mxGeometry relative="1" as="geometry">
                        <mxPoint x="180" y="-10" as="sourcePoint"/>
                        <Array as="points">
                            <mxPoint x="180" y="120"/>
                            <mxPoint x="-550" y="120"/>
                        </Array>
                    </mxGeometry>
                </mxCell>
                <mxCell id="Q-MIs8afRrduFS1menM--39" style="edgeStyle=orthogonalEdgeStyle;rounded=0;orthogonalLoop=1;jettySize=auto;html=1;startArrow=diamondThin;startFill=1;endArrow=none;endFill=0;entryX=0.5;entryY=0;entryDx=0;entryDy=0;" parent="1" source="qJp3A6C8HjUP3sD0QY61-11" target="ootQnw3ZIX1wVPfmf1-8-22" edge="1">
                    <mxGeometry relative="1" as="geometry">
                        <mxPoint x="180" y="30" as="sourcePoint"/>
                        <Array as="points">
                            <mxPoint x="180" y="120"/>
                            <mxPoint x="610" y="120"/>
                        </Array>
                    </mxGeometry>
                </mxCell>
                <mxCell id="atfwxAp-LSRYaSkqQC2g-32" style="edgeStyle=orthogonalEdgeStyle;rounded=0;orthogonalLoop=1;jettySize=auto;html=1;startArrow=diamondThin;startFill=0;endArrow=none;endFill=0;entryX=0.5;entryY=0;entryDx=0;entryDy=0;" parent="1" source="ootQnw3ZIX1wVPfmf1-8-39" target="ootQnw3ZIX1wVPfmf1-8-6" edge="1">
                    <mxGeometry relative="1" as="geometry">
                        <Array as="points"/>
                    </mxGeometry>
                </mxCell>
                <mxCell id="qJp3A6C8HjUP3sD0QY61-42" value="" style="edgeStyle=orthogonalEdgeStyle;rounded=0;orthogonalLoop=1;jettySize=auto;html=1;endArrow=block;endFill=0;startArrow=none;exitX=0;exitY=0.5;exitDx=0;exitDy=0;entryX=0.304;entryY=-0.014;entryDx=0;entryDy=0;entryPerimeter=0;" parent="1" source="qJp3A6C8HjUP3sD0QY61-46" target="qJp3A6C8HjUP3sD0QY61-49" edge="1">
                    <mxGeometry relative="1" as="geometry">
                        <mxPoint x="-490" y="710" as="sourcePoint"/>
                        <Array as="points">
                            <mxPoint x="-510" y="491"/>
                            <mxPoint x="-510" y="580"/>
                            <mxPoint x="-376" y="580"/>
                        </Array>
                    </mxGeometry>
                </mxCell>
                <mxCell id="Q-MIs8afRrduFS1menM--72" style="edgeStyle=orthogonalEdgeStyle;rounded=0;orthogonalLoop=1;jettySize=auto;html=1;exitX=0.5;exitY=1.038;exitDx=0;exitDy=0;startArrow=none;startFill=0;endArrow=open;endFill=0;dashed=1;exitPerimeter=0;" parent="1" source="ootQnw3ZIX1wVPfmf1-8-21" target="Q-MIs8afRrduFS1menM--70" edge="1">
                    <mxGeometry relative="1" as="geometry"/>
                </mxCell>
                <mxCell id="Q-MIs8afRrduFS1menM--116" style="edgeStyle=orthogonalEdgeStyle;rounded=0;orthogonalLoop=1;jettySize=auto;html=1;exitX=0.494;exitY=0.987;exitDx=0;exitDy=0;entryX=0.5;entryY=0;entryDx=0;entryDy=0;startArrow=none;startFill=0;endArrow=open;endFill=0;dashed=1;exitPerimeter=0;" parent="1" source="ootQnw3ZIX1wVPfmf1-8-25" target="Q-MIs8afRrduFS1menM--114" edge="1">
                    <mxGeometry relative="1" as="geometry"/>
                </mxCell>
                <mxCell id="atfwxAp-LSRYaSkqQC2g-18" style="edgeStyle=orthogonalEdgeStyle;rounded=0;orthogonalLoop=1;jettySize=auto;html=1;exitX=0.5;exitY=1;exitDx=0;exitDy=0;entryX=0;entryY=0.5;entryDx=0;entryDy=0;startArrow=diamondThin;startFill=0;endArrow=none;endFill=0;exitPerimeter=0;" parent="1" source="qJp3A6C8HjUP3sD0QY61-37" target="qJp3A6C8HjUP3sD0QY61-63" edge="1">
                    <mxGeometry relative="1" as="geometry"/>
                </mxCell>
                <mxCell id="atfwxAp-LSRYaSkqQC2g-3" style="edgeStyle=orthogonalEdgeStyle;rounded=0;orthogonalLoop=1;jettySize=auto;html=1;exitX=0.506;exitY=0.973;exitDx=0;exitDy=0;dashed=1;startArrow=none;startFill=0;endArrow=open;endFill=0;exitPerimeter=0;entryX=0.5;entryY=0;entryDx=0;entryDy=0;" parent="1" source="qJp3A6C8HjUP3sD0QY61-23" target="qJp3A6C8HjUP3sD0QY61-24" edge="1">
                    <mxGeometry relative="1" as="geometry"/>
                </mxCell>
                <mxCell id="atfwxAp-LSRYaSkqQC2g-6" style="edgeStyle=orthogonalEdgeStyle;rounded=0;orthogonalLoop=1;jettySize=auto;html=1;exitX=0.489;exitY=0.987;exitDx=0;exitDy=0;dashed=1;startArrow=none;startFill=0;endArrow=open;endFill=0;exitPerimeter=0;" parent="1" source="ootQnw3ZIX1wVPfmf1-8-29" target="atfwxAp-LSRYaSkqQC2g-4" edge="1">
                    <mxGeometry relative="1" as="geometry"/>
                </mxCell>
                <mxCell id="Q-MIs8afRrduFS1menM--45" style="edgeStyle=orthogonalEdgeStyle;rounded=0;orthogonalLoop=1;jettySize=auto;html=1;exitX=0.477;exitY=1.011;exitDx=0;exitDy=0;startArrow=diamondThin;startFill=0;endArrow=none;endFill=0;exitPerimeter=0;entryX=0.5;entryY=0;entryDx=0;entryDy=0;" parent="1" source="qJp3A6C8HjUP3sD0QY61-46" target="qJp3A6C8HjUP3sD0QY61-49" edge="1">
                    <mxGeometry relative="1" as="geometry">
                        <Array as="points">
                            <mxPoint x="-346" y="590"/>
                            <mxPoint x="-345" y="590"/>
                        </Array>
                    </mxGeometry>
                </mxCell>
                <mxCell id="Q-MIs8afRrduFS1menM--50" style="edgeStyle=orthogonalEdgeStyle;rounded=0;orthogonalLoop=1;jettySize=auto;html=1;exitX=0.5;exitY=0.981;exitDx=0;exitDy=0;startArrow=block;startFill=0;endArrow=none;endFill=0;exitPerimeter=0;entryX=0.5;entryY=0;entryDx=0;entryDy=0;" parent="1" source="qJp3A6C8HjUP3sD0QY61-52" target="qJp3A6C8HjUP3sD0QY61-53" edge="1">
                    <mxGeometry relative="1" as="geometry">
                        <Array as="points">
                            <mxPoint x="-345" y="820"/>
                            <mxPoint x="-420" y="820"/>
                            <mxPoint x="-420" y="860"/>
                        </Array>
                    </mxGeometry>
                </mxCell>
                <mxCell id="Q-MIs8afRrduFS1menM--51" style="edgeStyle=orthogonalEdgeStyle;rounded=0;orthogonalLoop=1;jettySize=auto;html=1;entryX=0.5;entryY=0;entryDx=0;entryDy=0;startArrow=block;startFill=0;endArrow=none;endFill=0;exitX=0.5;exitY=1;exitDx=0;exitDy=0;" parent="1" source="qJp3A6C8HjUP3sD0QY61-49" target="qJp3A6C8HjUP3sD0QY61-57" edge="1">
                    <mxGeometry relative="1" as="geometry">
                        <mxPoint x="-345" y="720" as="sourcePoint"/>
                        <Array as="points">
                            <mxPoint x="-345" y="820"/>
                            <mxPoint x="-260" y="820"/>
                            <mxPoint x="-260" y="860"/>
                        </Array>
                    </mxGeometry>
                </mxCell>
                <mxCell id="atfwxAp-LSRYaSkqQC2g-21" style="edgeStyle=orthogonalEdgeStyle;rounded=0;orthogonalLoop=1;jettySize=auto;html=1;exitX=1.007;exitY=0.419;exitDx=0;exitDy=0;startArrow=open;startFill=0;endArrow=none;endFill=0;dashed=1;exitPerimeter=0;" parent="1" source="qJp3A6C8HjUP3sD0QY61-46" target="ootQnw3ZIX1wVPfmf1-8-6" edge="1">
                    <mxGeometry relative="1" as="geometry"/>
                </mxCell>
                <mxCell id="Q-MIs8afRrduFS1menM--56" style="edgeStyle=orthogonalEdgeStyle;rounded=0;orthogonalLoop=1;jettySize=auto;html=1;exitX=0.502;exitY=0.996;exitDx=0;exitDy=0;startArrow=block;startFill=0;endArrow=none;endFill=0;exitPerimeter=0;entryX=0.5;entryY=0;entryDx=0;entryDy=0;" parent="1" source="qJp3A6C8HjUP3sD0QY61-56" target="qJp3A6C8HjUP3sD0QY61-62" edge="1">
                    <mxGeometry relative="1" as="geometry"/>
                </mxCell>
                <mxCell id="Q-MIs8afRrduFS1menM--57" style="edgeStyle=orthogonalEdgeStyle;rounded=0;orthogonalLoop=1;jettySize=auto;html=1;entryX=0.5;entryY=0;entryDx=0;entryDy=0;startArrow=block;startFill=0;endArrow=none;endFill=0;exitX=0.503;exitY=0.996;exitDx=0;exitDy=0;exitPerimeter=0;" parent="1" source="qJp3A6C8HjUP3sD0QY61-60" target="ootQnw3ZIX1wVPfmf1-8-1" edge="1">
                    <mxGeometry relative="1" as="geometry">
                        <mxPoint x="-260" y="840" as="sourcePoint"/>
                    </mxGeometry>
                </mxCell>
                <mxCell id="Q-MIs8afRrduFS1menM--67" style="edgeStyle=orthogonalEdgeStyle;rounded=0;orthogonalLoop=1;jettySize=auto;html=1;startArrow=diamondThin;startFill=0;endArrow=none;endFill=0;entryX=0.5;entryY=0;entryDx=0;entryDy=0;" parent="1" source="qJp3A6C8HjUP3sD0QY61-62" target="qJp3A6C8HjUP3sD0QY61-66" edge="1">
                    <mxGeometry relative="1" as="geometry">
                        <Array as="points">
                            <mxPoint x="-420" y="1030"/>
                            <mxPoint x="-500" y="1030"/>
                        </Array>
                    </mxGeometry>
                </mxCell>
                <mxCell id="Q-MIs8afRrduFS1menM--68" style="edgeStyle=orthogonalEdgeStyle;rounded=0;orthogonalLoop=1;jettySize=auto;html=1;startArrow=diamondThin;startFill=0;endArrow=none;endFill=0;entryX=0.5;entryY=0;entryDx=0;entryDy=0;" parent="1" source="qJp3A6C8HjUP3sD0QY61-62" target="qJp3A6C8HjUP3sD0QY61-71" edge="1">
                    <mxGeometry relative="1" as="geometry">
                        <Array as="points">
                            <mxPoint x="-420" y="1030"/>
                            <mxPoint x="-345" y="1030"/>
                        </Array>
                    </mxGeometry>
                </mxCell>
                <mxCell id="atfwxAp-LSRYaSkqQC2g-28" style="edgeStyle=orthogonalEdgeStyle;rounded=0;orthogonalLoop=1;jettySize=auto;html=1;exitX=1;exitY=0.5;exitDx=0;exitDy=0;startArrow=open;startFill=0;endArrow=none;endFill=0;dashed=1;" parent="1" source="qJp3A6C8HjUP3sD0QY61-63" target="ootQnw3ZIX1wVPfmf1-8-10" edge="1">
                    <mxGeometry relative="1" as="geometry">
                        <Array as="points">
                            <mxPoint x="-290" y="1043"/>
                            <mxPoint x="-290" y="980"/>
                            <mxPoint x="-110" y="980"/>
                        </Array>
                    </mxGeometry>
                </mxCell>
                <mxCell id="Q-MIs8afRrduFS1menM--69" style="edgeStyle=orthogonalEdgeStyle;rounded=0;orthogonalLoop=1;jettySize=auto;html=1;exitX=0.5;exitY=1;exitDx=0;exitDy=0;entryX=0;entryY=0.5;entryDx=0;entryDy=0;startArrow=diamondThin;startFill=0;endArrow=none;endFill=0;exitPerimeter=0;" parent="1" source="ootQnw3ZIX1wVPfmf1-8-4" target="Q-MIs8afRrduFS1menM--64" edge="1">
                    <mxGeometry relative="1" as="geometry"/>
                </mxCell>
                <mxCell id="atfwxAp-LSRYaSkqQC2g-29" style="edgeStyle=orthogonalEdgeStyle;rounded=0;orthogonalLoop=1;jettySize=auto;html=1;exitX=1;exitY=0.5;exitDx=0;exitDy=0;entryX=0.5;entryY=1.006;entryDx=0;entryDy=0;dashed=1;startArrow=open;startFill=0;endArrow=none;endFill=0;entryPerimeter=0;" parent="1" source="ootQnw3ZIX1wVPfmf1-8-2" target="ootQnw3ZIX1wVPfmf1-8-17" edge="1">
                    <mxGeometry relative="1" as="geometry"/>
                </mxCell>
                <mxCell id="atfwxAp-LSRYaSkqQC2g-17" style="edgeStyle=orthogonalEdgeStyle;rounded=0;orthogonalLoop=1;jettySize=auto;html=1;exitX=0;exitY=0.5;exitDx=0;exitDy=0;entryX=1;entryY=0.5;entryDx=0;entryDy=0;dashed=1;startArrow=open;startFill=0;endArrow=none;endFill=0;" parent="1" source="qJp3A6C8HjUP3sD0QY61-67" target="Q-MIs8afRrduFS1menM--94" edge="1">
                    <mxGeometry relative="1" as="geometry">
                        <Array as="points">
                            <mxPoint x="-590" y="1089"/>
                            <mxPoint x="-610" y="1090"/>
                            <mxPoint x="-610" y="657"/>
                        </Array>
                    </mxGeometry>
                </mxCell>
                <mxCell id="Q-MIs8afRrduFS1menM--66" style="edgeStyle=orthogonalEdgeStyle;rounded=0;orthogonalLoop=1;jettySize=auto;html=1;exitX=0.5;exitY=1;exitDx=0;exitDy=0;startArrow=block;startFill=0;endArrow=none;endFill=0;" parent="1" source="Q-MIs8afRrduFS1menM--62" target="Q-MIs8afRrduFS1menM--64" edge="1">
                    <mxGeometry relative="1" as="geometry"/>
                </mxCell>
                <mxCell id="Q-MIs8afRrduFS1menM--62" value="Vector" style="swimlane;fontStyle=1;align=center;verticalAlign=top;childLayout=stackLayout;horizontal=1;startSize=26;horizontalStack=0;resizeParent=1;resizeParentMax=0;resizeLast=0;collapsible=1;marginBottom=0;" parent="1" vertex="1">
                    <mxGeometry x="-150" y="1420" width="120" height="34" as="geometry"/>
                </mxCell>
                <mxCell id="Q-MIs8afRrduFS1menM--63" value="" style="line;strokeWidth=1;fillColor=none;align=left;verticalAlign=middle;spacingTop=-1;spacingLeft=3;spacingRight=3;rotatable=0;labelPosition=right;points=[];portConstraint=eastwest;" parent="Q-MIs8afRrduFS1menM--62" vertex="1">
                    <mxGeometry y="26" width="120" height="8" as="geometry"/>
                </mxCell>
                <mxCell id="Q-MIs8afRrduFS1menM--64" value="Vector4D" style="swimlane;fontStyle=1;align=center;verticalAlign=top;childLayout=stackLayout;horizontal=1;startSize=26;horizontalStack=0;resizeParent=1;resizeParentMax=0;resizeLast=0;collapsible=1;marginBottom=0;" parent="1" vertex="1">
                    <mxGeometry x="-150" y="1484" width="120" height="34" as="geometry"/>
                </mxCell>
                <mxCell id="Q-MIs8afRrduFS1menM--65" value="" style="line;strokeWidth=1;fillColor=none;align=left;verticalAlign=middle;spacingTop=-1;spacingLeft=3;spacingRight=3;rotatable=0;labelPosition=right;points=[];portConstraint=eastwest;" parent="Q-MIs8afRrduFS1menM--64" vertex="1">
                    <mxGeometry y="26" width="120" height="8" as="geometry"/>
                </mxCell>
                <mxCell id="Q-MIs8afRrduFS1menM--81" style="edgeStyle=orthogonalEdgeStyle;rounded=0;orthogonalLoop=1;jettySize=auto;html=1;exitX=0.5;exitY=1;exitDx=0;exitDy=0;entryX=0.5;entryY=0;entryDx=0;entryDy=0;startArrow=block;startFill=0;endArrow=none;endFill=0;" parent="1" source="Q-MIs8afRrduFS1menM--70" target="Q-MIs8afRrduFS1menM--75" edge="1">
                    <mxGeometry relative="1" as="geometry"/>
                </mxCell>
                <mxCell id="Q-MIs8afRrduFS1menM--82" style="edgeStyle=orthogonalEdgeStyle;rounded=0;orthogonalLoop=1;jettySize=auto;html=1;exitX=0.5;exitY=1;exitDx=0;exitDy=0;startArrow=block;startFill=0;endArrow=none;endFill=0;" parent="1" source="Q-MIs8afRrduFS1menM--70" target="Q-MIs8afRrduFS1menM--73" edge="1">
                    <mxGeometry relative="1" as="geometry"/>
                </mxCell>
                <mxCell id="Q-MIs8afRrduFS1menM--83" style="edgeStyle=orthogonalEdgeStyle;rounded=0;orthogonalLoop=1;jettySize=auto;html=1;exitX=0.5;exitY=1;exitDx=0;exitDy=0;entryX=0.5;entryY=0;entryDx=0;entryDy=0;startArrow=block;startFill=0;endArrow=none;endFill=0;" parent="1" source="Q-MIs8afRrduFS1menM--70" target="Q-MIs8afRrduFS1menM--77" edge="1">
                    <mxGeometry relative="1" as="geometry"/>
                </mxCell>
                <mxCell id="Q-MIs8afRrduFS1menM--70" value="CameraCommand" style="swimlane;fontStyle=1;align=center;verticalAlign=top;childLayout=stackLayout;horizontal=1;startSize=26;horizontalStack=0;resizeParent=1;resizeParentMax=0;resizeLast=0;collapsible=1;marginBottom=0;" parent="1" vertex="1">
                    <mxGeometry x="260" y="340" width="120" height="34" as="geometry"/>
                </mxCell>
                <mxCell id="Q-MIs8afRrduFS1menM--71" value="" style="line;strokeWidth=1;fillColor=none;align=left;verticalAlign=middle;spacingTop=-1;spacingLeft=3;spacingRight=3;rotatable=0;labelPosition=right;points=[];portConstraint=eastwest;" parent="Q-MIs8afRrduFS1menM--70" vertex="1">
                    <mxGeometry y="26" width="120" height="8" as="geometry"/>
                </mxCell>
                <mxCell id="Q-MIs8afRrduFS1menM--102" style="edgeStyle=orthogonalEdgeStyle;rounded=0;orthogonalLoop=1;jettySize=auto;html=1;exitX=0.5;exitY=1;exitDx=0;exitDy=0;entryX=1;entryY=0.5;entryDx=0;entryDy=0;dashed=1;startArrow=none;startFill=0;endArrow=open;endFill=0;" parent="1" source="Q-MIs8afRrduFS1menM--73" target="ootQnw3ZIX1wVPfmf1-8-2" edge="1">
                    <mxGeometry relative="1" as="geometry"/>
                </mxCell>
                <mxCell id="Q-MIs8afRrduFS1menM--73" value="RollLook" style="swimlane;fontStyle=1;align=center;verticalAlign=top;childLayout=stackLayout;horizontal=1;startSize=26;horizontalStack=0;resizeParent=1;resizeParentMax=0;resizeLast=0;collapsible=1;marginBottom=0;" parent="1" vertex="1">
                    <mxGeometry x="130" y="420" width="120" height="34" as="geometry"/>
                </mxCell>
                <mxCell id="Q-MIs8afRrduFS1menM--74" value="" style="line;strokeWidth=1;fillColor=none;align=left;verticalAlign=middle;spacingTop=-1;spacingLeft=3;spacingRight=3;rotatable=0;labelPosition=right;points=[];portConstraint=eastwest;" parent="Q-MIs8afRrduFS1menM--73" vertex="1">
                    <mxGeometry y="26" width="120" height="8" as="geometry"/>
                </mxCell>
                <mxCell id="Q-MIs8afRrduFS1menM--103" style="edgeStyle=orthogonalEdgeStyle;rounded=0;orthogonalLoop=1;jettySize=auto;html=1;exitX=0.5;exitY=1;exitDx=0;exitDy=0;entryX=1;entryY=0.5;entryDx=0;entryDy=0;dashed=1;startArrow=none;startFill=0;endArrow=open;endFill=0;" parent="1" source="Q-MIs8afRrduFS1menM--75" target="ootQnw3ZIX1wVPfmf1-8-2" edge="1">
                    <mxGeometry relative="1" as="geometry"/>
                </mxCell>
                <mxCell id="Q-MIs8afRrduFS1menM--75" value="RollUp" style="swimlane;fontStyle=1;align=center;verticalAlign=top;childLayout=stackLayout;horizontal=1;startSize=26;horizontalStack=0;resizeParent=1;resizeParentMax=0;resizeLast=0;collapsible=1;marginBottom=0;" parent="1" vertex="1">
                    <mxGeometry x="260" y="420" width="120" height="34" as="geometry"/>
                </mxCell>
                <mxCell id="Q-MIs8afRrduFS1menM--76" value="" style="line;strokeWidth=1;fillColor=none;align=left;verticalAlign=middle;spacingTop=-1;spacingLeft=3;spacingRight=3;rotatable=0;labelPosition=right;points=[];portConstraint=eastwest;" parent="Q-MIs8afRrduFS1menM--75" vertex="1">
                    <mxGeometry y="26" width="120" height="8" as="geometry"/>
                </mxCell>
                <mxCell id="Q-MIs8afRrduFS1menM--104" style="edgeStyle=orthogonalEdgeStyle;rounded=0;orthogonalLoop=1;jettySize=auto;html=1;exitX=0.5;exitY=1;exitDx=0;exitDy=0;entryX=1;entryY=0.5;entryDx=0;entryDy=0;dashed=1;startArrow=none;startFill=0;endArrow=open;endFill=0;" parent="1" source="Q-MIs8afRrduFS1menM--77" target="ootQnw3ZIX1wVPfmf1-8-2" edge="1">
                    <mxGeometry relative="1" as="geometry"/>
                </mxCell>
                <mxCell id="Q-MIs8afRrduFS1menM--77" value="RollRight" style="swimlane;fontStyle=1;align=center;verticalAlign=top;childLayout=stackLayout;horizontal=1;startSize=26;horizontalStack=0;resizeParent=1;resizeParentMax=0;resizeLast=0;collapsible=1;marginBottom=0;" parent="1" vertex="1">
                    <mxGeometry x="390" y="420" width="120" height="34" as="geometry"/>
                </mxCell>
                <mxCell id="Q-MIs8afRrduFS1menM--78" value="" style="line;strokeWidth=1;fillColor=none;align=left;verticalAlign=middle;spacingTop=-1;spacingLeft=3;spacingRight=3;rotatable=0;labelPosition=right;points=[];portConstraint=eastwest;" parent="Q-MIs8afRrduFS1menM--77" vertex="1">
                    <mxGeometry y="26" width="120" height="8" as="geometry"/>
                </mxCell>
                <mxCell id="atfwxAp-LSRYaSkqQC2g-15" style="edgeStyle=orthogonalEdgeStyle;rounded=0;orthogonalLoop=1;jettySize=auto;html=1;exitX=0.5;exitY=1;exitDx=0;exitDy=0;startArrow=block;startFill=0;endArrow=none;endFill=0;" parent="1" source="Q-MIs8afRrduFS1menM--84" target="Q-MIs8afRrduFS1menM--94" edge="1">
                    <mxGeometry relative="1" as="geometry"/>
                </mxCell>
                <mxCell id="Q-MIs8afRrduFS1menM--84" value="Matrix4x4" style="swimlane;fontStyle=1;align=center;verticalAlign=top;childLayout=stackLayout;horizontal=1;startSize=26;horizontalStack=0;resizeParent=1;resizeParentMax=0;resizeLast=0;collapsible=1;marginBottom=0;" parent="1" vertex="1">
                    <mxGeometry x="-1070" y="550" width="120" height="34" as="geometry"/>
                </mxCell>
                <mxCell id="Q-MIs8afRrduFS1menM--85" value="" style="line;strokeWidth=1;fillColor=none;align=left;verticalAlign=middle;spacingTop=-1;spacingLeft=3;spacingRight=3;rotatable=0;labelPosition=right;points=[];portConstraint=eastwest;" parent="Q-MIs8afRrduFS1menM--84" vertex="1">
                    <mxGeometry y="26" width="120" height="8" as="geometry"/>
                </mxCell>
                <mxCell id="Q-MIs8afRrduFS1menM--88" style="edgeStyle=orthogonalEdgeStyle;rounded=0;orthogonalLoop=1;jettySize=auto;html=1;exitX=0.5;exitY=1;exitDx=0;exitDy=0;entryX=0.5;entryY=0;entryDx=0;entryDy=0;startArrow=block;startFill=0;endArrow=none;endFill=0;" parent="1" source="Q-MIs8afRrduFS1menM--86" target="Q-MIs8afRrduFS1menM--84" edge="1">
                    <mxGeometry relative="1" as="geometry"/>
                </mxCell>
                <mxCell id="Q-MIs8afRrduFS1menM--86" value="Matrix" style="swimlane;fontStyle=1;align=center;verticalAlign=top;childLayout=stackLayout;horizontal=1;startSize=26;horizontalStack=0;resizeParent=1;resizeParentMax=0;resizeLast=0;collapsible=1;marginBottom=0;" parent="1" vertex="1">
                    <mxGeometry x="-1070" y="470" width="120" height="34" as="geometry"/>
                </mxCell>
                <mxCell id="Q-MIs8afRrduFS1menM--87" value="" style="line;strokeWidth=1;fillColor=none;align=left;verticalAlign=middle;spacingTop=-1;spacingLeft=3;spacingRight=3;rotatable=0;labelPosition=right;points=[];portConstraint=eastwest;" parent="Q-MIs8afRrduFS1menM--86" vertex="1">
                    <mxGeometry y="26" width="120" height="8" as="geometry"/>
                </mxCell>
                <mxCell id="Q-MIs8afRrduFS1menM--91" style="edgeStyle=orthogonalEdgeStyle;rounded=0;orthogonalLoop=1;jettySize=auto;html=1;exitX=0.5;exitY=1;exitDx=0;exitDy=0;entryX=0.5;entryY=0;entryDx=0;entryDy=0;dashed=1;startArrow=block;startFill=0;endArrow=none;endFill=0;" parent="1" source="Q-MIs8afRrduFS1menM--94" target="Q-MIs8afRrduFS1menM--98" edge="1">
                    <mxGeometry relative="1" as="geometry"/>
                </mxCell>
                <mxCell id="Q-MIs8afRrduFS1menM--92" style="edgeStyle=orthogonalEdgeStyle;rounded=0;orthogonalLoop=1;jettySize=auto;html=1;exitX=0.5;exitY=1;exitDx=0;exitDy=0;dashed=1;startArrow=block;startFill=0;endArrow=none;endFill=0;" parent="1" source="Q-MIs8afRrduFS1menM--94" target="Q-MIs8afRrduFS1menM--96" edge="1">
                    <mxGeometry relative="1" as="geometry"/>
                </mxCell>
                <mxCell id="Q-MIs8afRrduFS1menM--93" style="edgeStyle=orthogonalEdgeStyle;rounded=0;orthogonalLoop=1;jettySize=auto;html=1;exitX=0.5;exitY=1;exitDx=0;exitDy=0;entryX=0.5;entryY=0;entryDx=0;entryDy=0;dashed=1;startArrow=block;startFill=0;endArrow=none;endFill=0;" parent="1" source="Q-MIs8afRrduFS1menM--94" target="Q-MIs8afRrduFS1menM--100" edge="1">
                    <mxGeometry relative="1" as="geometry"/>
                </mxCell>
                <mxCell id="Q-MIs8afRrduFS1menM--109" style="edgeStyle=orthogonalEdgeStyle;rounded=0;orthogonalLoop=1;jettySize=auto;html=1;exitX=0.5;exitY=1;exitDx=0;exitDy=0;startArrow=block;startFill=0;endArrow=none;endFill=0;dashed=1;" parent="1" source="Q-MIs8afRrduFS1menM--94" target="Q-MIs8afRrduFS1menM--105" edge="1">
                    <mxGeometry relative="1" as="geometry"/>
                </mxCell>
                <mxCell id="Q-MIs8afRrduFS1menM--110" style="edgeStyle=orthogonalEdgeStyle;rounded=0;orthogonalLoop=1;jettySize=auto;html=1;exitX=0.5;exitY=1;exitDx=0;exitDy=0;entryX=0.5;entryY=0;entryDx=0;entryDy=0;dashed=1;startArrow=block;startFill=0;endArrow=none;endFill=0;" parent="1" source="Q-MIs8afRrduFS1menM--94" target="Q-MIs8afRrduFS1menM--107" edge="1">
                    <mxGeometry relative="1" as="geometry"/>
                </mxCell>
                <mxCell id="Q-MIs8afRrduFS1menM--113" style="edgeStyle=orthogonalEdgeStyle;rounded=0;orthogonalLoop=1;jettySize=auto;html=1;exitX=0.5;exitY=1;exitDx=0;exitDy=0;dashed=1;startArrow=block;startFill=0;endArrow=none;endFill=0;" parent="1" source="Q-MIs8afRrduFS1menM--94" target="Q-MIs8afRrduFS1menM--111" edge="1">
                    <mxGeometry relative="1" as="geometry"/>
                </mxCell>
                <mxCell id="Q-MIs8afRrduFS1menM--94" value="ITransformation" style="swimlane;fontStyle=1;align=center;verticalAlign=top;childLayout=stackLayout;horizontal=1;startSize=26;horizontalStack=0;resizeParent=1;resizeParentMax=0;resizeLast=0;collapsible=1;marginBottom=0;" parent="1" vertex="1">
                    <mxGeometry x="-1070" y="640" width="120" height="34" as="geometry"/>
                </mxCell>
                <mxCell id="Q-MIs8afRrduFS1menM--95" value="" style="line;strokeWidth=1;fillColor=none;align=left;verticalAlign=middle;spacingTop=-1;spacingLeft=3;spacingRight=3;rotatable=0;labelPosition=right;points=[];portConstraint=eastwest;" parent="Q-MIs8afRrduFS1menM--94" vertex="1">
                    <mxGeometry y="26" width="120" height="8" as="geometry"/>
                </mxCell>
                <mxCell id="Q-MIs8afRrduFS1menM--96" value="Scale" style="swimlane;fontStyle=1;align=center;verticalAlign=top;childLayout=stackLayout;horizontal=1;startSize=26;horizontalStack=0;resizeParent=1;resizeParentMax=0;resizeLast=0;collapsible=1;marginBottom=0;" parent="1" vertex="1">
                    <mxGeometry x="-1400" y="714" width="120" height="34" as="geometry"/>
                </mxCell>
                <mxCell id="Q-MIs8afRrduFS1menM--97" value="" style="line;strokeWidth=1;fillColor=none;align=left;verticalAlign=middle;spacingTop=-1;spacingLeft=3;spacingRight=3;rotatable=0;labelPosition=right;points=[];portConstraint=eastwest;" parent="Q-MIs8afRrduFS1menM--96" vertex="1">
                    <mxGeometry y="26" width="120" height="8" as="geometry"/>
                </mxCell>
                <mxCell id="Q-MIs8afRrduFS1menM--98" value="Translate" style="swimlane;fontStyle=1;align=center;verticalAlign=top;childLayout=stackLayout;horizontal=1;startSize=26;horizontalStack=0;resizeParent=1;resizeParentMax=0;resizeLast=0;collapsible=1;marginBottom=0;" parent="1" vertex="1">
                    <mxGeometry x="-1270" y="714" width="120" height="34" as="geometry"/>
                </mxCell>
                <mxCell id="Q-MIs8afRrduFS1menM--99" value="" style="line;strokeWidth=1;fillColor=none;align=left;verticalAlign=middle;spacingTop=-1;spacingLeft=3;spacingRight=3;rotatable=0;labelPosition=right;points=[];portConstraint=eastwest;" parent="Q-MIs8afRrduFS1menM--98" vertex="1">
                    <mxGeometry y="26" width="120" height="8" as="geometry"/>
                </mxCell>
                <mxCell id="Q-MIs8afRrduFS1menM--100" value="RotateOX" style="swimlane;fontStyle=1;align=center;verticalAlign=top;childLayout=stackLayout;horizontal=1;startSize=26;horizontalStack=0;resizeParent=1;resizeParentMax=0;resizeLast=0;collapsible=1;marginBottom=0;" parent="1" vertex="1">
                    <mxGeometry x="-1140" y="714" width="120" height="34" as="geometry"/>
                </mxCell>
                <mxCell id="Q-MIs8afRrduFS1menM--101" value="" style="line;strokeWidth=1;fillColor=none;align=left;verticalAlign=middle;spacingTop=-1;spacingLeft=3;spacingRight=3;rotatable=0;labelPosition=right;points=[];portConstraint=eastwest;" parent="Q-MIs8afRrduFS1menM--100" vertex="1">
                    <mxGeometry y="26" width="120" height="8" as="geometry"/>
                </mxCell>
                <mxCell id="Q-MIs8afRrduFS1menM--105" value="RotateOY" style="swimlane;fontStyle=1;align=center;verticalAlign=top;childLayout=stackLayout;horizontal=1;startSize=26;horizontalStack=0;resizeParent=1;resizeParentMax=0;resizeLast=0;collapsible=1;marginBottom=0;" parent="1" vertex="1">
                    <mxGeometry x="-1000" y="714" width="120" height="34" as="geometry"/>
                </mxCell>
                <mxCell id="Q-MIs8afRrduFS1menM--106" value="" style="line;strokeWidth=1;fillColor=none;align=left;verticalAlign=middle;spacingTop=-1;spacingLeft=3;spacingRight=3;rotatable=0;labelPosition=right;points=[];portConstraint=eastwest;" parent="Q-MIs8afRrduFS1menM--105" vertex="1">
                    <mxGeometry y="26" width="120" height="8" as="geometry"/>
                </mxCell>
                <mxCell id="Q-MIs8afRrduFS1menM--107" value="RotateOZ" style="swimlane;fontStyle=1;align=center;verticalAlign=top;childLayout=stackLayout;horizontal=1;startSize=26;horizontalStack=0;resizeParent=1;resizeParentMax=0;resizeLast=0;collapsible=1;marginBottom=0;" parent="1" vertex="1">
                    <mxGeometry x="-870" y="714" width="120" height="34" as="geometry"/>
                </mxCell>
                <mxCell id="Q-MIs8afRrduFS1menM--108" value="" style="line;strokeWidth=1;fillColor=none;align=left;verticalAlign=middle;spacingTop=-1;spacingLeft=3;spacingRight=3;rotatable=0;labelPosition=right;points=[];portConstraint=eastwest;" parent="Q-MIs8afRrduFS1menM--107" vertex="1">
                    <mxGeometry y="26" width="120" height="8" as="geometry"/>
                </mxCell>
                <mxCell id="Q-MIs8afRrduFS1menM--111" value="Rotation" style="swimlane;fontStyle=1;align=center;verticalAlign=top;childLayout=stackLayout;horizontal=1;startSize=26;horizontalStack=0;resizeParent=1;resizeParentMax=0;resizeLast=0;collapsible=1;marginBottom=0;" parent="1" vertex="1">
                    <mxGeometry x="-740" y="714" width="120" height="34" as="geometry"/>
                </mxCell>
                <mxCell id="Q-MIs8afRrduFS1menM--112" value="" style="line;strokeWidth=1;fillColor=none;align=left;verticalAlign=middle;spacingTop=-1;spacingLeft=3;spacingRight=3;rotatable=0;labelPosition=right;points=[];portConstraint=eastwest;" parent="Q-MIs8afRrduFS1menM--111" vertex="1">
                    <mxGeometry y="26" width="120" height="8" as="geometry"/>
                </mxCell>
                <mxCell id="atfwxAp-LSRYaSkqQC2g-7" style="edgeStyle=orthogonalEdgeStyle;rounded=0;orthogonalLoop=1;jettySize=auto;html=1;exitX=0.5;exitY=1;exitDx=0;exitDy=0;startArrow=block;startFill=0;endArrow=none;endFill=0;" parent="1" source="Q-MIs8afRrduFS1menM--114" target="Q-MIs8afRrduFS1menM--117" edge="1">
                    <mxGeometry relative="1" as="geometry"/>
                </mxCell>
                <mxCell id="Q-MIs8afRrduFS1menM--114" value="BaseDrawer" style="swimlane;fontStyle=1;align=center;verticalAlign=top;childLayout=stackLayout;horizontal=1;startSize=26;horizontalStack=0;resizeParent=1;resizeParentMax=0;resizeLast=0;collapsible=1;marginBottom=0;" parent="1" vertex="1">
                    <mxGeometry x="550" y="340" width="120" height="34" as="geometry"/>
                </mxCell>
                <mxCell id="Q-MIs8afRrduFS1menM--115" value="" style="line;strokeWidth=1;fillColor=none;align=left;verticalAlign=middle;spacingTop=-1;spacingLeft=3;spacingRight=3;rotatable=0;labelPosition=right;points=[];portConstraint=eastwest;" parent="Q-MIs8afRrduFS1menM--114" vertex="1">
                    <mxGeometry y="26" width="120" height="8" as="geometry"/>
                </mxCell>
                <mxCell id="Q-MIs8afRrduFS1menM--117" value="Drawer" style="swimlane;fontStyle=1;align=center;verticalAlign=top;childLayout=stackLayout;horizontal=1;startSize=26;horizontalStack=0;resizeParent=1;resizeParentMax=0;resizeLast=0;collapsible=1;marginBottom=0;" parent="1" vertex="1">
                    <mxGeometry x="550" y="420" width="120" height="34" as="geometry"/>
                </mxCell>
                <mxCell id="Q-MIs8afRrduFS1menM--118" value="" style="line;strokeWidth=1;fillColor=none;align=left;verticalAlign=middle;spacingTop=-1;spacingLeft=3;spacingRight=3;rotatable=0;labelPosition=right;points=[];portConstraint=eastwest;" parent="Q-MIs8afRrduFS1menM--117" vertex="1">
                    <mxGeometry y="26" width="120" height="8" as="geometry"/>
                </mxCell>
                <mxCell id="atfwxAp-LSRYaSkqQC2g-14" style="edgeStyle=orthogonalEdgeStyle;rounded=0;orthogonalLoop=1;jettySize=auto;html=1;exitX=0.5;exitY=1;exitDx=0;exitDy=0;entryX=0.5;entryY=0;entryDx=0;entryDy=0;startArrow=block;startFill=0;endArrow=none;endFill=0;" parent="1" source="atfwxAp-LSRYaSkqQC2g-4" target="atfwxAp-LSRYaSkqQC2g-12" edge="1">
                    <mxGeometry relative="1" as="geometry"/>
                </mxCell>
                <mxCell id="atfwxAp-LSRYaSkqQC2g-4" value="BaseUploader" style="swimlane;fontStyle=1;align=center;verticalAlign=top;childLayout=stackLayout;horizontal=1;startSize=26;horizontalStack=0;resizeParent=1;resizeParentMax=0;resizeLast=0;collapsible=1;marginBottom=0;" parent="1" vertex="1">
                    <mxGeometry x="720" y="340" width="120" height="34" as="geometry"/>
                </mxCell>
                <mxCell id="atfwxAp-LSRYaSkqQC2g-5" value="" style="line;strokeWidth=1;fillColor=none;align=left;verticalAlign=middle;spacingTop=-1;spacingLeft=3;spacingRight=3;rotatable=0;labelPosition=right;points=[];portConstraint=eastwest;" parent="atfwxAp-LSRYaSkqQC2g-4" vertex="1">
                    <mxGeometry y="26" width="120" height="8" as="geometry"/>
                </mxCell>
                <mxCell id="atfwxAp-LSRYaSkqQC2g-16" style="edgeStyle=orthogonalEdgeStyle;rounded=0;orthogonalLoop=1;jettySize=auto;html=1;exitX=0.5;exitY=1;exitDx=0;exitDy=0;entryX=1;entryY=0.5;entryDx=0;entryDy=0;startArrow=open;startFill=0;endArrow=none;endFill=0;dashed=1;exitPerimeter=0;" parent="1" source="qJp3A6C8HjUP3sD0QY61-33" target="Q-MIs8afRrduFS1menM--94" edge="1">
                    <mxGeometry relative="1" as="geometry"/>
                </mxCell>
                <mxCell id="qJp3A6C8HjUP3sD0QY61-29" style="edgeStyle=orthogonalEdgeStyle;rounded=0;orthogonalLoop=1;jettySize=auto;html=1;endArrow=block;endFill=0;" parent="1" source="qJp3A6C8HjUP3sD0QY61-30" target="qJp3A6C8HjUP3sD0QY61-24" edge="1">
                    <mxGeometry relative="1" as="geometry"/>
                </mxCell>
                <mxCell id="atfwxAp-LSRYaSkqQC2g-12" value="Uploader" style="swimlane;fontStyle=1;align=center;verticalAlign=top;childLayout=stackLayout;horizontal=1;startSize=26;horizontalStack=0;resizeParent=1;resizeParentMax=0;resizeLast=0;collapsible=1;marginBottom=0;" parent="1" vertex="1">
                    <mxGeometry x="720" y="420" width="120" height="34" as="geometry"/>
                </mxCell>
                <mxCell id="atfwxAp-LSRYaSkqQC2g-13" value="" style="line;strokeWidth=1;fillColor=none;align=left;verticalAlign=middle;spacingTop=-1;spacingLeft=3;spacingRight=3;rotatable=0;labelPosition=right;points=[];portConstraint=eastwest;" parent="atfwxAp-LSRYaSkqQC2g-12" vertex="1">
                    <mxGeometry y="26" width="120" height="8" as="geometry"/>
                </mxCell>
                <mxCell id="atfwxAp-LSRYaSkqQC2g-26" style="edgeStyle=orthogonalEdgeStyle;rounded=0;orthogonalLoop=1;jettySize=auto;html=1;startArrow=block;startFill=0;endArrow=none;endFill=0;entryX=0.5;entryY=0;entryDx=0;entryDy=0;" parent="1" source="ootQnw3ZIX1wVPfmf1-8-6" target="ootQnw3ZIX1wVPfmf1-8-10" edge="1">
                    <mxGeometry relative="1" as="geometry"/>
                </mxCell>
                <mxCell id="atfwxAp-LSRYaSkqQC2g-27" style="edgeStyle=orthogonalEdgeStyle;rounded=0;orthogonalLoop=1;jettySize=auto;html=1;startArrow=block;startFill=0;endArrow=none;endFill=0;entryX=0.5;entryY=0;entryDx=0;entryDy=0;" parent="1" source="ootQnw3ZIX1wVPfmf1-8-6" target="ootQnw3ZIX1wVPfmf1-8-14" edge="1">
                    <mxGeometry relative="1" as="geometry"/>
                </mxCell>
                <mxCell id="qJp3A6C8HjUP3sD0QY61-11" value="Facade" style="swimlane;fontStyle=1;align=center;verticalAlign=top;childLayout=stackLayout;horizontal=1;startSize=26;horizontalStack=0;resizeParent=1;resizeParentMax=0;resizeLast=0;collapsible=1;marginBottom=0;" parent="1" vertex="1">
                    <mxGeometry x="110" y="-60" width="140" height="104" as="geometry"/>
                </mxCell>
                <mxCell id="qJp3A6C8HjUP3sD0QY61-12" value="- Controller&amp; controller&#10;- Solution solution" style="text;strokeColor=none;fillColor=none;align=left;verticalAlign=top;spacingLeft=4;spacingRight=4;overflow=hidden;rotatable=0;points=[[0,0.5],[1,0.5]];portConstraint=eastwest;" parent="qJp3A6C8HjUP3sD0QY61-11" vertex="1">
                    <mxGeometry y="26" width="140" height="44" as="geometry"/>
                </mxCell>
                <mxCell id="qJp3A6C8HjUP3sD0QY61-13" value="" style="line;strokeWidth=1;fillColor=none;align=left;verticalAlign=middle;spacingTop=-1;spacingLeft=3;spacingRight=3;rotatable=0;labelPosition=right;points=[];portConstraint=eastwest;" parent="qJp3A6C8HjUP3sD0QY61-11" vertex="1">
                    <mxGeometry y="70" width="140" height="8" as="geometry"/>
                </mxCell>
                <mxCell id="qJp3A6C8HjUP3sD0QY61-14" value="+ executeCommand()" style="text;strokeColor=none;fillColor=none;align=left;verticalAlign=top;spacingLeft=4;spacingRight=4;overflow=hidden;rotatable=0;points=[[0,0.5],[1,0.5]];portConstraint=eastwest;" parent="qJp3A6C8HjUP3sD0QY61-11" vertex="1">
                    <mxGeometry y="78" width="140" height="26" as="geometry"/>
                </mxCell>
                <mxCell id="qJp3A6C8HjUP3sD0QY61-20" value="ModelManager" style="swimlane;fontStyle=1;align=center;verticalAlign=top;childLayout=stackLayout;horizontal=1;startSize=26;horizontalStack=0;resizeParent=1;resizeParentMax=0;resizeLast=0;collapsible=1;marginBottom=0;" parent="1" vertex="1">
                    <mxGeometry x="-790" y="164" width="120" height="86" as="geometry"/>
                </mxCell>
                <mxCell id="qJp3A6C8HjUP3sD0QY61-21" value="---" style="text;strokeColor=none;fillColor=none;align=left;verticalAlign=top;spacingLeft=4;spacingRight=4;overflow=hidden;rotatable=0;points=[[0,0.5],[1,0.5]];portConstraint=eastwest;" parent="qJp3A6C8HjUP3sD0QY61-20" vertex="1">
                    <mxGeometry y="26" width="120" height="26" as="geometry"/>
                </mxCell>
                <mxCell id="qJp3A6C8HjUP3sD0QY61-22" value="" style="line;strokeWidth=1;fillColor=none;align=left;verticalAlign=middle;spacingTop=-1;spacingLeft=3;spacingRight=3;rotatable=0;labelPosition=right;points=[];portConstraint=eastwest;" parent="qJp3A6C8HjUP3sD0QY61-20" vertex="1">
                    <mxGeometry y="52" width="120" height="8" as="geometry"/>
                </mxCell>
                <mxCell id="qJp3A6C8HjUP3sD0QY61-23" value="+ transform()" style="text;strokeColor=none;fillColor=none;align=left;verticalAlign=top;spacingLeft=4;spacingRight=4;overflow=hidden;rotatable=0;points=[[0,0.5],[1,0.5]];portConstraint=eastwest;" parent="qJp3A6C8HjUP3sD0QY61-20" vertex="1">
                    <mxGeometry y="60" width="120" height="26" as="geometry"/>
                </mxCell>
                <mxCell id="qJp3A6C8HjUP3sD0QY61-24" value="BaseTransformation" style="swimlane;fontStyle=1;align=center;verticalAlign=top;childLayout=stackLayout;horizontal=1;startSize=26;horizontalStack=0;resizeParent=1;resizeParentMax=0;resizeLast=0;collapsible=1;marginBottom=0;" parent="1" vertex="1">
                    <mxGeometry x="-790" y="288" width="120" height="86" as="geometry"/>
                </mxCell>
                <mxCell id="qJp3A6C8HjUP3sD0QY61-25" value="---" style="text;strokeColor=none;fillColor=none;align=left;verticalAlign=top;spacingLeft=4;spacingRight=4;overflow=hidden;rotatable=0;points=[[0,0.5],[1,0.5]];portConstraint=eastwest;" parent="qJp3A6C8HjUP3sD0QY61-24" vertex="1">
                    <mxGeometry y="26" width="120" height="26" as="geometry"/>
                </mxCell>
                <mxCell id="qJp3A6C8HjUP3sD0QY61-26" value="" style="line;strokeWidth=1;fillColor=none;align=left;verticalAlign=middle;spacingTop=-1;spacingLeft=3;spacingRight=3;rotatable=0;labelPosition=right;points=[];portConstraint=eastwest;" parent="qJp3A6C8HjUP3sD0QY61-24" vertex="1">
                    <mxGeometry y="52" width="120" height="8" as="geometry"/>
                </mxCell>
                <mxCell id="qJp3A6C8HjUP3sD0QY61-27" value="+ transform()" style="text;strokeColor=none;fillColor=none;align=left;verticalAlign=top;spacingLeft=4;spacingRight=4;overflow=hidden;rotatable=0;points=[[0,0.5],[1,0.5]];portConstraint=eastwest;" parent="qJp3A6C8HjUP3sD0QY61-24" vertex="1">
                    <mxGeometry y="60" width="120" height="26" as="geometry"/>
                </mxCell>
                <mxCell id="qJp3A6C8HjUP3sD0QY61-30" value="Transformation" style="swimlane;fontStyle=1;align=center;verticalAlign=top;childLayout=stackLayout;horizontal=1;startSize=26;horizontalStack=0;resizeParent=1;resizeParentMax=0;resizeLast=0;collapsible=1;marginBottom=0;" parent="1" vertex="1">
                    <mxGeometry x="-790" y="418" width="120" height="86" as="geometry"/>
                </mxCell>
                <mxCell id="qJp3A6C8HjUP3sD0QY61-31" value="- Matrix matrix" style="text;strokeColor=none;fillColor=none;align=left;verticalAlign=top;spacingLeft=4;spacingRight=4;overflow=hidden;rotatable=0;points=[[0,0.5],[1,0.5]];portConstraint=eastwest;" parent="qJp3A6C8HjUP3sD0QY61-30" vertex="1">
                    <mxGeometry y="26" width="120" height="26" as="geometry"/>
                </mxCell>
                <mxCell id="qJp3A6C8HjUP3sD0QY61-32" value="" style="line;strokeWidth=1;fillColor=none;align=left;verticalAlign=middle;spacingTop=-1;spacingLeft=3;spacingRight=3;rotatable=0;labelPosition=right;points=[];portConstraint=eastwest;" parent="qJp3A6C8HjUP3sD0QY61-30" vertex="1">
                    <mxGeometry y="52" width="120" height="8" as="geometry"/>
                </mxCell>
                <mxCell id="qJp3A6C8HjUP3sD0QY61-33" value="+ transform()" style="text;strokeColor=none;fillColor=none;align=left;verticalAlign=top;spacingLeft=4;spacingRight=4;overflow=hidden;rotatable=0;points=[[0,0.5],[1,0.5]];portConstraint=eastwest;" parent="qJp3A6C8HjUP3sD0QY61-30" vertex="1">
                    <mxGeometry y="60" width="120" height="26" as="geometry"/>
                </mxCell>
                <mxCell id="qJp3A6C8HjUP3sD0QY61-34" value="ModelView" style="swimlane;fontStyle=1;align=center;verticalAlign=top;childLayout=stackLayout;horizontal=1;startSize=26;horizontalStack=0;resizeParent=1;resizeParentMax=0;resizeLast=0;collapsible=1;marginBottom=0;" parent="1" vertex="1">
                    <mxGeometry x="-635" y="164" width="170" height="100" as="geometry"/>
                </mxCell>
                <mxCell id="qJp3A6C8HjUP3sD0QY61-35" value="- Model[] models" style="text;strokeColor=none;fillColor=none;align=left;verticalAlign=top;spacingLeft=4;spacingRight=4;overflow=hidden;rotatable=0;points=[[0,0.5],[1,0.5]];portConstraint=eastwest;" parent="qJp3A6C8HjUP3sD0QY61-34" vertex="1">
                    <mxGeometry y="26" width="170" height="26" as="geometry"/>
                </mxCell>
                <mxCell id="qJp3A6C8HjUP3sD0QY61-36" value="" style="line;strokeWidth=1;fillColor=none;align=left;verticalAlign=middle;spacingTop=-1;spacingLeft=3;spacingRight=3;rotatable=0;labelPosition=right;points=[];portConstraint=eastwest;" parent="qJp3A6C8HjUP3sD0QY61-34" vertex="1">
                    <mxGeometry y="52" width="170" height="8" as="geometry"/>
                </mxCell>
                <mxCell id="qJp3A6C8HjUP3sD0QY61-37" value="+ addView()&#10;+ removeView()" style="text;strokeColor=none;fillColor=none;align=left;verticalAlign=top;spacingLeft=4;spacingRight=4;overflow=hidden;rotatable=0;points=[[0,0.5],[1,0.5]];portConstraint=eastwest;" parent="qJp3A6C8HjUP3sD0QY61-34" vertex="1">
                    <mxGeometry y="60" width="170" height="40" as="geometry"/>
                </mxCell>
                <mxCell id="qJp3A6C8HjUP3sD0QY61-38" value="Scene" style="swimlane;fontStyle=1;align=center;verticalAlign=top;childLayout=stackLayout;horizontal=1;startSize=26;horizontalStack=0;resizeParent=1;resizeParentMax=0;resizeLast=0;collapsible=1;marginBottom=0;" parent="1" vertex="1">
                    <mxGeometry x="-420" y="164" width="160" height="90" as="geometry"/>
                </mxCell>
                <mxCell id="qJp3A6C8HjUP3sD0QY61-39" value="- CompositeObject objects" style="text;strokeColor=none;fillColor=none;align=left;verticalAlign=top;spacingLeft=4;spacingRight=4;overflow=hidden;rotatable=0;points=[[0,0.5],[1,0.5]];portConstraint=eastwest;" parent="qJp3A6C8HjUP3sD0QY61-38" vertex="1">
                    <mxGeometry y="26" width="160" height="26" as="geometry"/>
                </mxCell>
                <mxCell id="qJp3A6C8HjUP3sD0QY61-40" value="" style="line;strokeWidth=1;fillColor=none;align=left;verticalAlign=middle;spacingTop=-1;spacingLeft=3;spacingRight=3;rotatable=0;labelPosition=right;points=[];portConstraint=eastwest;" parent="qJp3A6C8HjUP3sD0QY61-38" vertex="1">
                    <mxGeometry y="52" width="160" height="8" as="geometry"/>
                </mxCell>
                <mxCell id="qJp3A6C8HjUP3sD0QY61-41" value="+ isVisible()" style="text;strokeColor=none;fillColor=none;align=left;verticalAlign=top;spacingLeft=4;spacingRight=4;overflow=hidden;rotatable=0;points=[[0,0.5],[1,0.5]];portConstraint=eastwest;" parent="qJp3A6C8HjUP3sD0QY61-38" vertex="1">
                    <mxGeometry y="60" width="160" height="30" as="geometry"/>
                </mxCell>
                <mxCell id="qJp3A6C8HjUP3sD0QY61-43" value="CompositeObject" style="swimlane;fontStyle=1;align=center;verticalAlign=top;childLayout=stackLayout;horizontal=1;startSize=26;horizontalStack=0;resizeParent=1;resizeParentMax=0;resizeLast=0;collapsible=1;marginBottom=0;" parent="1" vertex="1">
                    <mxGeometry x="-465" y="366" width="250" height="190" as="geometry">
                        <mxRectangle x="-550" y="730" width="130" height="26" as="alternateBounds"/>
                    </mxGeometry>
                </mxCell>
                <mxCell id="qJp3A6C8HjUP3sD0QY61-44" value="- SceneObject[]  sceneObjects" style="text;strokeColor=none;fillColor=none;align=left;verticalAlign=top;spacingLeft=4;spacingRight=4;overflow=hidden;rotatable=0;points=[[0,0.5],[1,0.5]];portConstraint=eastwest;" parent="qJp3A6C8HjUP3sD0QY61-43" vertex="1">
                    <mxGeometry y="26" width="250" height="26" as="geometry"/>
                </mxCell>
                <mxCell id="qJp3A6C8HjUP3sD0QY61-45" value="" style="line;strokeWidth=1;fillColor=none;align=left;verticalAlign=middle;spacingTop=-1;spacingLeft=3;spacingRight=3;rotatable=0;labelPosition=right;points=[];portConstraint=eastwest;" parent="qJp3A6C8HjUP3sD0QY61-43" vertex="1">
                    <mxGeometry y="52" width="250" height="8" as="geometry"/>
                </mxCell>
                <mxCell id="qJp3A6C8HjUP3sD0QY61-46" value="+ addModel()&#10;+ removeModel()&#10;+ addCamera()&#10;+ removeCamera()&#10;+ getModel()&#10;+ getCamera()&#10;+ transform()&#10;+ isVisible()" style="text;strokeColor=none;fillColor=none;align=left;verticalAlign=top;spacingLeft=4;spacingRight=4;overflow=hidden;rotatable=0;points=[[0,0.5],[1,0.5]];portConstraint=eastwest;" parent="qJp3A6C8HjUP3sD0QY61-43" vertex="1">
                    <mxGeometry y="60" width="250" height="130" as="geometry"/>
                </mxCell>
                <mxCell id="qJp3A6C8HjUP3sD0QY61-48" value="" style="edgeStyle=orthogonalEdgeStyle;rounded=0;orthogonalLoop=1;jettySize=auto;html=1;endArrow=none;endFill=0;exitX=0.502;exitY=1.003;exitDx=0;exitDy=0;exitPerimeter=0;" parent="1" source="qJp3A6C8HjUP3sD0QY61-41" target="qJp3A6C8HjUP3sD0QY61-43" edge="1">
                    <mxGeometry relative="1" as="geometry">
                        <mxPoint x="-339.67999999999984" y="334.3300000000004" as="sourcePoint"/>
                        <mxPoint x="-279.99999999999955" y="460.00000000000045" as="targetPoint"/>
                        <Array as="points">
                            <mxPoint x="-340" y="360"/>
                        </Array>
                    </mxGeometry>
                </mxCell>
                <mxCell id="qJp3A6C8HjUP3sD0QY61-49" value="SceneObject" style="swimlane;fontStyle=1;align=center;verticalAlign=top;childLayout=stackLayout;horizontal=1;startSize=26;horizontalStack=0;resizeParent=1;resizeParentMax=0;resizeLast=0;collapsible=1;marginBottom=0;" parent="1" vertex="1">
                    <mxGeometry x="-425" y="600" width="160" height="200" as="geometry"/>
                </mxCell>
                <mxCell id="qJp3A6C8HjUP3sD0QY61-50" value="+ bool visible" style="text;strokeColor=none;fillColor=none;align=left;verticalAlign=top;spacingLeft=4;spacingRight=4;overflow=hidden;rotatable=0;points=[[0,0.5],[1,0.5]];portConstraint=eastwest;" parent="qJp3A6C8HjUP3sD0QY61-49" vertex="1">
                    <mxGeometry y="26" width="160" height="26" as="geometry"/>
                </mxCell>
                <mxCell id="qJp3A6C8HjUP3sD0QY61-51" value="" style="line;strokeWidth=1;fillColor=none;align=left;verticalAlign=middle;spacingTop=-1;spacingLeft=3;spacingRight=3;rotatable=0;labelPosition=right;points=[];portConstraint=eastwest;" parent="qJp3A6C8HjUP3sD0QY61-49" vertex="1">
                    <mxGeometry y="52" width="160" height="8" as="geometry"/>
                </mxCell>
                <mxCell id="qJp3A6C8HjUP3sD0QY61-52" value="+ addModel()&#10;+ removeModel()&#10;+ addCamera()&#10;+ removeCamera()&#10;+ getModel()&#10;+ getCamera()&#10;+ transform()&#10;+ isVisible()&#10;+ accept()" style="text;strokeColor=none;fillColor=none;align=left;verticalAlign=top;spacingLeft=4;spacingRight=4;overflow=hidden;rotatable=0;points=[[0,0.5],[1,0.5]];portConstraint=eastwest;" parent="qJp3A6C8HjUP3sD0QY61-49" vertex="1">
                    <mxGeometry y="60" width="160" height="140" as="geometry"/>
                </mxCell>
                <mxCell id="qJp3A6C8HjUP3sD0QY61-53" value="VisibleObject" style="swimlane;fontStyle=1;align=center;verticalAlign=top;childLayout=stackLayout;horizontal=1;startSize=26;horizontalStack=0;resizeParent=1;resizeParentMax=0;resizeLast=0;collapsible=1;marginBottom=0;" parent="1" vertex="1">
                    <mxGeometry x="-470" y="860" width="120" height="86" as="geometry"/>
                </mxCell>
                <mxCell id="qJp3A6C8HjUP3sD0QY61-54" value="---" style="text;strokeColor=none;fillColor=none;align=left;verticalAlign=top;spacingLeft=4;spacingRight=4;overflow=hidden;rotatable=0;points=[[0,0.5],[1,0.5]];portConstraint=eastwest;" parent="qJp3A6C8HjUP3sD0QY61-53" vertex="1">
                    <mxGeometry y="26" width="120" height="26" as="geometry"/>
                </mxCell>
                <mxCell id="qJp3A6C8HjUP3sD0QY61-55" value="" style="line;strokeWidth=1;fillColor=none;align=left;verticalAlign=middle;spacingTop=-1;spacingLeft=3;spacingRight=3;rotatable=0;labelPosition=right;points=[];portConstraint=eastwest;" parent="qJp3A6C8HjUP3sD0QY61-53" vertex="1">
                    <mxGeometry y="52" width="120" height="8" as="geometry"/>
                </mxCell>
                <mxCell id="qJp3A6C8HjUP3sD0QY61-56" value="+ isVisible() final" style="text;strokeColor=none;fillColor=none;align=left;verticalAlign=top;spacingLeft=4;spacingRight=4;overflow=hidden;rotatable=0;points=[[0,0.5],[1,0.5]];portConstraint=eastwest;" parent="qJp3A6C8HjUP3sD0QY61-53" vertex="1">
                    <mxGeometry y="60" width="120" height="26" as="geometry"/>
                </mxCell>
                <mxCell id="qJp3A6C8HjUP3sD0QY61-57" value="InvsibleObject" style="swimlane;fontStyle=1;align=center;verticalAlign=top;childLayout=stackLayout;horizontal=1;startSize=26;horizontalStack=0;resizeParent=1;resizeParentMax=0;resizeLast=0;collapsible=1;marginBottom=0;" parent="1" vertex="1">
                    <mxGeometry x="-310" y="860" width="120" height="86" as="geometry"/>
                </mxCell>
                <mxCell id="qJp3A6C8HjUP3sD0QY61-58" value="---" style="text;strokeColor=none;fillColor=none;align=left;verticalAlign=top;spacingLeft=4;spacingRight=4;overflow=hidden;rotatable=0;points=[[0,0.5],[1,0.5]];portConstraint=eastwest;" parent="qJp3A6C8HjUP3sD0QY61-57" vertex="1">
                    <mxGeometry y="26" width="120" height="26" as="geometry"/>
                </mxCell>
                <mxCell id="qJp3A6C8HjUP3sD0QY61-59" value="" style="line;strokeWidth=1;fillColor=none;align=left;verticalAlign=middle;spacingTop=-1;spacingLeft=3;spacingRight=3;rotatable=0;labelPosition=right;points=[];portConstraint=eastwest;" parent="qJp3A6C8HjUP3sD0QY61-57" vertex="1">
                    <mxGeometry y="52" width="120" height="8" as="geometry"/>
                </mxCell>
                <mxCell id="qJp3A6C8HjUP3sD0QY61-60" value="+ isVisible() final" style="text;strokeColor=none;fillColor=none;align=left;verticalAlign=top;spacingLeft=4;spacingRight=4;overflow=hidden;rotatable=0;points=[[0,0.5],[1,0.5]];portConstraint=eastwest;" parent="qJp3A6C8HjUP3sD0QY61-57" vertex="1">
                    <mxGeometry y="60" width="120" height="26" as="geometry"/>
                </mxCell>
                <mxCell id="qJp3A6C8HjUP3sD0QY61-62" value="Model" style="swimlane;fontStyle=1;align=center;verticalAlign=top;childLayout=stackLayout;horizontal=1;startSize=26;horizontalStack=0;resizeParent=1;resizeParentMax=0;resizeLast=0;collapsible=1;marginBottom=0;" parent="1" vertex="1">
                    <mxGeometry x="-500" y="1000" width="180" height="94" as="geometry"/>
                </mxCell>
                <mxCell id="qJp3A6C8HjUP3sD0QY61-63" value="- Point3D[] vertices&#10;- Edge[] edges" style="text;strokeColor=none;fillColor=none;align=left;verticalAlign=top;spacingLeft=4;spacingRight=4;overflow=hidden;rotatable=0;points=[[0,0.5],[1,0.5]];portConstraint=eastwest;" parent="qJp3A6C8HjUP3sD0QY61-62" vertex="1">
                    <mxGeometry y="26" width="180" height="34" as="geometry"/>
                </mxCell>
                <mxCell id="qJp3A6C8HjUP3sD0QY61-64" value="" style="line;strokeWidth=1;fillColor=none;align=left;verticalAlign=middle;spacingTop=-1;spacingLeft=3;spacingRight=3;rotatable=0;labelPosition=right;points=[];portConstraint=eastwest;" parent="qJp3A6C8HjUP3sD0QY61-62" vertex="1">
                    <mxGeometry y="60" width="180" height="8" as="geometry"/>
                </mxCell>
                <mxCell id="qJp3A6C8HjUP3sD0QY61-65" value="---" style="text;strokeColor=none;fillColor=none;align=left;verticalAlign=top;spacingLeft=4;spacingRight=4;overflow=hidden;rotatable=0;points=[[0,0.5],[1,0.5]];portConstraint=eastwest;" parent="qJp3A6C8HjUP3sD0QY61-62" vertex="1">
                    <mxGeometry y="68" width="180" height="26" as="geometry"/>
                </mxCell>
                <mxCell id="qJp3A6C8HjUP3sD0QY61-66" value="Point3D" style="swimlane;fontStyle=1;align=center;verticalAlign=top;childLayout=stackLayout;horizontal=1;startSize=26;horizontalStack=0;resizeParent=1;resizeParentMax=0;resizeLast=0;collapsible=1;marginBottom=0;" parent="1" vertex="1">
                    <mxGeometry x="-540" y="1150" width="110" height="130" as="geometry"/>
                </mxCell>
                <mxCell id="qJp3A6C8HjUP3sD0QY61-67" value="- T x, y, z" style="text;strokeColor=none;fillColor=none;align=left;verticalAlign=top;spacingLeft=4;spacingRight=4;overflow=hidden;rotatable=0;points=[[0,0.5],[1,0.5]];portConstraint=eastwest;" parent="qJp3A6C8HjUP3sD0QY61-66" vertex="1">
                    <mxGeometry y="26" width="110" height="26" as="geometry"/>
                </mxCell>
                <mxCell id="qJp3A6C8HjUP3sD0QY61-68" value="" style="line;strokeWidth=1;fillColor=none;align=left;verticalAlign=middle;spacingTop=-1;spacingLeft=3;spacingRight=3;rotatable=0;labelPosition=right;points=[];portConstraint=eastwest;" parent="qJp3A6C8HjUP3sD0QY61-66" vertex="1">
                    <mxGeometry y="52" width="110" height="8" as="geometry"/>
                </mxCell>
                <mxCell id="qJp3A6C8HjUP3sD0QY61-69" value="+ x()&#10;+ y()&#10;+ z()&#10;+ toVector4D()" style="text;strokeColor=none;fillColor=none;align=left;verticalAlign=top;spacingLeft=4;spacingRight=4;overflow=hidden;rotatable=0;points=[[0,0.5],[1,0.5]];portConstraint=eastwest;" parent="qJp3A6C8HjUP3sD0QY61-66" vertex="1">
                    <mxGeometry y="60" width="110" height="70" as="geometry"/>
                </mxCell>
                <mxCell id="qJp3A6C8HjUP3sD0QY61-71" value="Edge" style="swimlane;fontStyle=1;align=center;verticalAlign=top;childLayout=stackLayout;horizontal=1;startSize=26;horizontalStack=0;resizeParent=1;resizeParentMax=0;resizeLast=0;collapsible=1;marginBottom=0;" parent="1" vertex="1">
                    <mxGeometry x="-390" y="1150" width="110" height="120" as="geometry"/>
                </mxCell>
                <mxCell id="qJp3A6C8HjUP3sD0QY61-72" value="- std::size_t p1, p2" style="text;strokeColor=none;fillColor=none;align=left;verticalAlign=top;spacingLeft=4;spacingRight=4;overflow=hidden;rotatable=0;points=[[0,0.5],[1,0.5]];portConstraint=eastwest;" parent="qJp3A6C8HjUP3sD0QY61-71" vertex="1">
                    <mxGeometry y="26" width="110" height="26" as="geometry"/>
                </mxCell>
                <mxCell id="qJp3A6C8HjUP3sD0QY61-73" value="" style="line;strokeWidth=1;fillColor=none;align=left;verticalAlign=middle;spacingTop=-1;spacingLeft=3;spacingRight=3;rotatable=0;labelPosition=right;points=[];portConstraint=eastwest;" parent="qJp3A6C8HjUP3sD0QY61-71" vertex="1">
                    <mxGeometry y="52" width="110" height="8" as="geometry"/>
                </mxCell>
                <mxCell id="qJp3A6C8HjUP3sD0QY61-74" value="+ at()&#10;+ p1()&#10;+ p2()&#10;" style="text;strokeColor=none;fillColor=none;align=left;verticalAlign=top;spacingLeft=4;spacingRight=4;overflow=hidden;rotatable=0;points=[[0,0.5],[1,0.5]];portConstraint=eastwest;" parent="qJp3A6C8HjUP3sD0QY61-71" vertex="1">
                    <mxGeometry y="60" width="110" height="60" as="geometry"/>
                </mxCell>
                <mxCell id="ootQnw3ZIX1wVPfmf1-8-5" value="" style="edgeStyle=orthogonalEdgeStyle;rounded=0;orthogonalLoop=1;jettySize=auto;html=1;" parent="1" source="ootQnw3ZIX1wVPfmf1-8-1" target="qJp3A6C8HjUP3sD0QY61-74" edge="1">
                    <mxGeometry relative="1" as="geometry"/>
                </mxCell>
                <mxCell id="ootQnw3ZIX1wVPfmf1-8-1" value="Camera" style="swimlane;fontStyle=1;align=center;verticalAlign=top;childLayout=stackLayout;horizontal=1;startSize=26;horizontalStack=0;resizeParent=1;resizeParentMax=0;resizeLast=0;collapsible=1;marginBottom=0;" parent="1" vertex="1">
                    <mxGeometry x="-340" y="1290" width="160" height="150" as="geometry"/>
                </mxCell>
                <mxCell id="ootQnw3ZIX1wVPfmf1-8-2" value="- Vector4D look&#10;- Vector4D up&#10;- Vector4D right" style="text;strokeColor=none;fillColor=none;align=left;verticalAlign=top;spacingLeft=4;spacingRight=4;overflow=hidden;rotatable=0;points=[[0,0.5],[1,0.5]];portConstraint=eastwest;" parent="ootQnw3ZIX1wVPfmf1-8-1" vertex="1">
                    <mxGeometry y="26" width="160" height="54" as="geometry"/>
                </mxCell>
                <mxCell id="ootQnw3ZIX1wVPfmf1-8-3" value="" style="line;strokeWidth=1;fillColor=none;align=left;verticalAlign=middle;spacingTop=-1;spacingLeft=3;spacingRight=3;rotatable=0;labelPosition=right;points=[];portConstraint=eastwest;" parent="ootQnw3ZIX1wVPfmf1-8-1" vertex="1">
                    <mxGeometry y="80" width="160" height="8" as="geometry"/>
                </mxCell>
                <mxCell id="ootQnw3ZIX1wVPfmf1-8-4" value="+ rollLook()&#10;+ rollUp()&#10;+ rollRight()" style="text;strokeColor=none;fillColor=none;align=left;verticalAlign=top;spacingLeft=4;spacingRight=4;overflow=hidden;rotatable=0;points=[[0,0.5],[1,0.5]];portConstraint=eastwest;" parent="ootQnw3ZIX1wVPfmf1-8-1" vertex="1">
                    <mxGeometry y="88" width="160" height="62" as="geometry"/>
                </mxCell>
                <mxCell id="ootQnw3ZIX1wVPfmf1-8-6" value="SceneObjectCreator" style="swimlane;fontStyle=1;align=center;verticalAlign=top;childLayout=stackLayout;horizontal=1;startSize=26;horizontalStack=0;resizeParent=1;resizeParentMax=0;resizeLast=0;collapsible=1;marginBottom=0;" parent="1" vertex="1">
                    <mxGeometry x="-30" y="596" width="120" height="86" as="geometry"/>
                </mxCell>
                <mxCell id="ootQnw3ZIX1wVPfmf1-8-7" value="---" style="text;strokeColor=none;fillColor=none;align=left;verticalAlign=top;spacingLeft=4;spacingRight=4;overflow=hidden;rotatable=0;points=[[0,0.5],[1,0.5]];portConstraint=eastwest;" parent="ootQnw3ZIX1wVPfmf1-8-6" vertex="1">
                    <mxGeometry y="26" width="120" height="26" as="geometry"/>
                </mxCell>
                <mxCell id="ootQnw3ZIX1wVPfmf1-8-8" value="" style="line;strokeWidth=1;fillColor=none;align=left;verticalAlign=middle;spacingTop=-1;spacingLeft=3;spacingRight=3;rotatable=0;labelPosition=right;points=[];portConstraint=eastwest;" parent="ootQnw3ZIX1wVPfmf1-8-6" vertex="1">
                    <mxGeometry y="52" width="120" height="8" as="geometry"/>
                </mxCell>
                <mxCell id="ootQnw3ZIX1wVPfmf1-8-9" value="create()" style="text;strokeColor=none;fillColor=none;align=left;verticalAlign=top;spacingLeft=4;spacingRight=4;overflow=hidden;rotatable=0;points=[[0,0.5],[1,0.5]];portConstraint=eastwest;" parent="ootQnw3ZIX1wVPfmf1-8-6" vertex="1">
                    <mxGeometry y="60" width="120" height="26" as="geometry"/>
                </mxCell>
                <mxCell id="ootQnw3ZIX1wVPfmf1-8-10" value="ModelCreator" style="swimlane;fontStyle=1;align=center;verticalAlign=top;childLayout=stackLayout;horizontal=1;startSize=26;horizontalStack=0;resizeParent=1;resizeParentMax=0;resizeLast=0;collapsible=1;marginBottom=0;" parent="1" vertex="1">
                    <mxGeometry x="-110" y="760" width="120" height="86" as="geometry"/>
                </mxCell>
                <mxCell id="ootQnw3ZIX1wVPfmf1-8-11" value="---" style="text;strokeColor=none;fillColor=none;align=left;verticalAlign=top;spacingLeft=4;spacingRight=4;overflow=hidden;rotatable=0;points=[[0,0.5],[1,0.5]];portConstraint=eastwest;" parent="ootQnw3ZIX1wVPfmf1-8-10" vertex="1">
                    <mxGeometry y="26" width="120" height="26" as="geometry"/>
                </mxCell>
                <mxCell id="ootQnw3ZIX1wVPfmf1-8-12" value="" style="line;strokeWidth=1;fillColor=none;align=left;verticalAlign=middle;spacingTop=-1;spacingLeft=3;spacingRight=3;rotatable=0;labelPosition=right;points=[];portConstraint=eastwest;" parent="ootQnw3ZIX1wVPfmf1-8-10" vertex="1">
                    <mxGeometry y="52" width="120" height="8" as="geometry"/>
                </mxCell>
                <mxCell id="ootQnw3ZIX1wVPfmf1-8-13" value="create()" style="text;strokeColor=none;fillColor=none;align=left;verticalAlign=top;spacingLeft=4;spacingRight=4;overflow=hidden;rotatable=0;points=[[0,0.5],[1,0.5]];portConstraint=eastwest;" parent="ootQnw3ZIX1wVPfmf1-8-10" vertex="1">
                    <mxGeometry y="60" width="120" height="26" as="geometry"/>
                </mxCell>
                <mxCell id="ootQnw3ZIX1wVPfmf1-8-14" value="CameraCreator" style="swimlane;fontStyle=1;align=center;verticalAlign=top;childLayout=stackLayout;horizontal=1;startSize=26;horizontalStack=0;resizeParent=1;resizeParentMax=0;resizeLast=0;collapsible=1;marginBottom=0;" parent="1" vertex="1">
                    <mxGeometry x="50" y="760" width="120" height="86" as="geometry"/>
                </mxCell>
                <mxCell id="ootQnw3ZIX1wVPfmf1-8-15" value="---" style="text;strokeColor=none;fillColor=none;align=left;verticalAlign=top;spacingLeft=4;spacingRight=4;overflow=hidden;rotatable=0;points=[[0,0.5],[1,0.5]];portConstraint=eastwest;" parent="ootQnw3ZIX1wVPfmf1-8-14" vertex="1">
                    <mxGeometry y="26" width="120" height="26" as="geometry"/>
                </mxCell>
                <mxCell id="ootQnw3ZIX1wVPfmf1-8-16" value="" style="line;strokeWidth=1;fillColor=none;align=left;verticalAlign=middle;spacingTop=-1;spacingLeft=3;spacingRight=3;rotatable=0;labelPosition=right;points=[];portConstraint=eastwest;" parent="ootQnw3ZIX1wVPfmf1-8-14" vertex="1">
                    <mxGeometry y="52" width="120" height="8" as="geometry"/>
                </mxCell>
                <mxCell id="ootQnw3ZIX1wVPfmf1-8-17" value="create()" style="text;strokeColor=none;fillColor=none;align=left;verticalAlign=top;spacingLeft=4;spacingRight=4;overflow=hidden;rotatable=0;points=[[0,0.5],[1,0.5]];portConstraint=eastwest;" parent="ootQnw3ZIX1wVPfmf1-8-14" vertex="1">
                    <mxGeometry y="60" width="120" height="26" as="geometry"/>
                </mxCell>
                <mxCell id="ootQnw3ZIX1wVPfmf1-8-18" value="CameraManager" style="swimlane;fontStyle=1;align=center;verticalAlign=top;childLayout=stackLayout;horizontal=1;startSize=26;horizontalStack=0;resizeParent=1;resizeParentMax=0;resizeLast=0;collapsible=1;marginBottom=0;" parent="1" vertex="1">
                    <mxGeometry x="260" y="164" width="120" height="86" as="geometry"/>
                </mxCell>
                <mxCell id="ootQnw3ZIX1wVPfmf1-8-19" value="---" style="text;strokeColor=none;fillColor=none;align=left;verticalAlign=top;spacingLeft=4;spacingRight=4;overflow=hidden;rotatable=0;points=[[0,0.5],[1,0.5]];portConstraint=eastwest;" parent="ootQnw3ZIX1wVPfmf1-8-18" vertex="1">
                    <mxGeometry y="26" width="120" height="26" as="geometry"/>
                </mxCell>
                <mxCell id="ootQnw3ZIX1wVPfmf1-8-20" value="" style="line;strokeWidth=1;fillColor=none;align=left;verticalAlign=middle;spacingTop=-1;spacingLeft=3;spacingRight=3;rotatable=0;labelPosition=right;points=[];portConstraint=eastwest;" parent="ootQnw3ZIX1wVPfmf1-8-18" vertex="1">
                    <mxGeometry y="52" width="120" height="8" as="geometry"/>
                </mxCell>
                <mxCell id="ootQnw3ZIX1wVPfmf1-8-21" value="+ transform()" style="text;strokeColor=none;fillColor=none;align=left;verticalAlign=top;spacingLeft=4;spacingRight=4;overflow=hidden;rotatable=0;points=[[0,0.5],[1,0.5]];portConstraint=eastwest;" parent="ootQnw3ZIX1wVPfmf1-8-18" vertex="1">
                    <mxGeometry y="60" width="120" height="26" as="geometry"/>
                </mxCell>
                <mxCell id="ootQnw3ZIX1wVPfmf1-8-22" value="DrawManager" style="swimlane;fontStyle=1;align=center;verticalAlign=top;childLayout=stackLayout;horizontal=1;startSize=26;horizontalStack=0;resizeParent=1;resizeParentMax=0;resizeLast=0;collapsible=1;marginBottom=0;" parent="1" vertex="1">
                    <mxGeometry x="550" y="164" width="120" height="86" as="geometry"/>
                </mxCell>
                <mxCell id="ootQnw3ZIX1wVPfmf1-8-23" value="---" style="text;strokeColor=none;fillColor=none;align=left;verticalAlign=top;spacingLeft=4;spacingRight=4;overflow=hidden;rotatable=0;points=[[0,0.5],[1,0.5]];portConstraint=eastwest;" parent="ootQnw3ZIX1wVPfmf1-8-22" vertex="1">
                    <mxGeometry y="26" width="120" height="26" as="geometry"/>
                </mxCell>
                <mxCell id="ootQnw3ZIX1wVPfmf1-8-24" value="" style="line;strokeWidth=1;fillColor=none;align=left;verticalAlign=middle;spacingTop=-1;spacingLeft=3;spacingRight=3;rotatable=0;labelPosition=right;points=[];portConstraint=eastwest;" parent="ootQnw3ZIX1wVPfmf1-8-22" vertex="1">
                    <mxGeometry y="52" width="120" height="8" as="geometry"/>
                </mxCell>
                <mxCell id="ootQnw3ZIX1wVPfmf1-8-25" value="+ draw()" style="text;strokeColor=none;fillColor=none;align=left;verticalAlign=top;spacingLeft=4;spacingRight=4;overflow=hidden;rotatable=0;points=[[0,0.5],[1,0.5]];portConstraint=eastwest;" parent="ootQnw3ZIX1wVPfmf1-8-22" vertex="1">
                    <mxGeometry y="60" width="120" height="26" as="geometry"/>
                </mxCell>
                <mxCell id="ootQnw3ZIX1wVPfmf1-8-26" value="UploadManager" style="swimlane;fontStyle=1;align=center;verticalAlign=top;childLayout=stackLayout;horizontal=1;startSize=26;horizontalStack=0;resizeParent=1;resizeParentMax=0;resizeLast=0;collapsible=1;marginBottom=0;" parent="1" vertex="1">
                    <mxGeometry x="720" y="164" width="120" height="86" as="geometry"/>
                </mxCell>
                <mxCell id="ootQnw3ZIX1wVPfmf1-8-27" value="---" style="text;strokeColor=none;fillColor=none;align=left;verticalAlign=top;spacingLeft=4;spacingRight=4;overflow=hidden;rotatable=0;points=[[0,0.5],[1,0.5]];portConstraint=eastwest;" parent="ootQnw3ZIX1wVPfmf1-8-26" vertex="1">
                    <mxGeometry y="26" width="120" height="26" as="geometry"/>
                </mxCell>
                <mxCell id="ootQnw3ZIX1wVPfmf1-8-28" value="" style="line;strokeWidth=1;fillColor=none;align=left;verticalAlign=middle;spacingTop=-1;spacingLeft=3;spacingRight=3;rotatable=0;labelPosition=right;points=[];portConstraint=eastwest;" parent="ootQnw3ZIX1wVPfmf1-8-26" vertex="1">
                    <mxGeometry y="52" width="120" height="8" as="geometry"/>
                </mxCell>
                <mxCell id="ootQnw3ZIX1wVPfmf1-8-29" value="+ upload()" style="text;strokeColor=none;fillColor=none;align=left;verticalAlign=top;spacingLeft=4;spacingRight=4;overflow=hidden;rotatable=0;points=[[0,0.5],[1,0.5]];portConstraint=eastwest;" parent="ootQnw3ZIX1wVPfmf1-8-26" vertex="1">
                    <mxGeometry y="60" width="120" height="26" as="geometry"/>
                </mxCell>
                <mxCell id="ootQnw3ZIX1wVPfmf1-8-31" value="Command" style="swimlane;fontStyle=1;align=center;verticalAlign=top;childLayout=stackLayout;horizontal=1;startSize=26;horizontalStack=0;resizeParent=1;resizeParentMax=0;resizeLast=0;collapsible=1;marginBottom=0;" parent="1" vertex="1">
                    <mxGeometry x="-50" y="-60" width="100" height="86" as="geometry"/>
                </mxCell>
                <mxCell id="ootQnw3ZIX1wVPfmf1-8-32" value="+ field: type" style="text;strokeColor=none;fillColor=none;align=left;verticalAlign=top;spacingLeft=4;spacingRight=4;overflow=hidden;rotatable=0;points=[[0,0.5],[1,0.5]];portConstraint=eastwest;" parent="ootQnw3ZIX1wVPfmf1-8-31" vertex="1">
                    <mxGeometry y="26" width="100" height="26" as="geometry"/>
                </mxCell>
                <mxCell id="ootQnw3ZIX1wVPfmf1-8-33" value="" style="line;strokeWidth=1;fillColor=none;align=left;verticalAlign=middle;spacingTop=-1;spacingLeft=3;spacingRight=3;rotatable=0;labelPosition=right;points=[];portConstraint=eastwest;" parent="ootQnw3ZIX1wVPfmf1-8-31" vertex="1">
                    <mxGeometry y="52" width="100" height="8" as="geometry"/>
                </mxCell>
                <mxCell id="ootQnw3ZIX1wVPfmf1-8-34" value="+ execute()" style="text;strokeColor=none;fillColor=none;align=left;verticalAlign=top;spacingLeft=4;spacingRight=4;overflow=hidden;rotatable=0;points=[[0,0.5],[1,0.5]];portConstraint=eastwest;" parent="ootQnw3ZIX1wVPfmf1-8-31" vertex="1">
                    <mxGeometry y="60" width="100" height="26" as="geometry"/>
                </mxCell>
                <mxCell id="ootQnw3ZIX1wVPfmf1-8-48" style="edgeStyle=orthogonalEdgeStyle;rounded=0;orthogonalLoop=1;jettySize=auto;html=1;startArrow=none;startFill=0;endArrow=diamondThin;endFill=1;" parent="1" source="ootQnw3ZIX1wVPfmf1-8-35" target="qJp3A6C8HjUP3sD0QY61-11" edge="1">
                    <mxGeometry relative="1" as="geometry">
                        <Array as="points">
                            <mxPoint x="30" y="120"/>
                            <mxPoint x="180" y="120"/>
                        </Array>
                    </mxGeometry>
                </mxCell>
                <mxCell id="ootQnw3ZIX1wVPfmf1-8-35" value="Solution" style="swimlane;fontStyle=1;align=center;verticalAlign=top;childLayout=stackLayout;horizontal=1;startSize=26;horizontalStack=0;resizeParent=1;resizeParentMax=0;resizeLast=0;collapsible=1;marginBottom=0;" parent="1" vertex="1">
                    <mxGeometry x="-50" y="164" width="160" height="86" as="geometry"/>
                </mxCell>
                <mxCell id="ootQnw3ZIX1wVPfmf1-8-36" value="- CallBackMap callbacks" style="text;strokeColor=none;fillColor=none;align=left;verticalAlign=top;spacingLeft=4;spacingRight=4;overflow=hidden;rotatable=0;points=[[0,0.5],[1,0.5]];portConstraint=eastwest;" parent="ootQnw3ZIX1wVPfmf1-8-35" vertex="1">
                    <mxGeometry y="26" width="160" height="26" as="geometry"/>
                </mxCell>
                <mxCell id="ootQnw3ZIX1wVPfmf1-8-37" value="" style="line;strokeWidth=1;fillColor=none;align=left;verticalAlign=middle;spacingTop=-1;spacingLeft=3;spacingRight=3;rotatable=0;labelPosition=right;points=[];portConstraint=eastwest;" parent="ootQnw3ZIX1wVPfmf1-8-35" vertex="1">
                    <mxGeometry y="52" width="160" height="8" as="geometry"/>
                </mxCell>
                <mxCell id="ootQnw3ZIX1wVPfmf1-8-38" value="+ registrate()" style="text;strokeColor=none;fillColor=none;align=left;verticalAlign=top;spacingLeft=4;spacingRight=4;overflow=hidden;rotatable=0;points=[[0,0.5],[1,0.5]];portConstraint=eastwest;" parent="ootQnw3ZIX1wVPfmf1-8-35" vertex="1">
                    <mxGeometry y="60" width="160" height="26" as="geometry"/>
                </mxCell>
                <mxCell id="ootQnw3ZIX1wVPfmf1-8-44" style="edgeStyle=orthogonalEdgeStyle;rounded=0;orthogonalLoop=1;jettySize=auto;html=1;exitX=0.5;exitY=0;exitDx=0;exitDy=0;startArrow=none;startFill=0;endArrow=diamondThin;endFill=0;" parent="1" source="ootQnw3ZIX1wVPfmf1-8-39" target="ootQnw3ZIX1wVPfmf1-8-35" edge="1">
                    <mxGeometry relative="1" as="geometry"/>
                </mxCell>
                <mxCell id="ootQnw3ZIX1wVPfmf1-8-39" value="SceneObjectCrCreator" style="swimlane;fontStyle=1;align=center;verticalAlign=top;childLayout=stackLayout;horizontal=1;startSize=26;horizontalStack=0;resizeParent=1;resizeParentMax=0;resizeLast=0;collapsible=1;marginBottom=0;" parent="1" vertex="1">
                    <mxGeometry x="-50" y="300" width="160" height="86" as="geometry"/>
                </mxCell>
                <mxCell id="ootQnw3ZIX1wVPfmf1-8-40" value="---" style="text;strokeColor=none;fillColor=none;align=left;verticalAlign=top;spacingLeft=4;spacingRight=4;overflow=hidden;rotatable=0;points=[[0,0.5],[1,0.5]];portConstraint=eastwest;" parent="ootQnw3ZIX1wVPfmf1-8-39" vertex="1">
                    <mxGeometry y="26" width="160" height="26" as="geometry"/>
                </mxCell>
                <mxCell id="ootQnw3ZIX1wVPfmf1-8-41" value="" style="line;strokeWidth=1;fillColor=none;align=left;verticalAlign=middle;spacingTop=-1;spacingLeft=3;spacingRight=3;rotatable=0;labelPosition=right;points=[];portConstraint=eastwest;" parent="ootQnw3ZIX1wVPfmf1-8-39" vertex="1">
                    <mxGeometry y="52" width="160" height="8" as="geometry"/>
                </mxCell>
                <mxCell id="ootQnw3ZIX1wVPfmf1-8-42" value="+ createConCreator()" style="text;strokeColor=none;fillColor=none;align=left;verticalAlign=top;spacingLeft=4;spacingRight=4;overflow=hidden;rotatable=0;points=[[0,0.5],[1,0.5]];portConstraint=eastwest;" parent="ootQnw3ZIX1wVPfmf1-8-39" vertex="1">
                    <mxGeometry y="60" width="160" height="26" as="geometry"/>
                </mxCell>
                <mxCell id="ootQnw3ZIX1wVPfmf1-8-46" style="edgeStyle=orthogonalEdgeStyle;rounded=0;orthogonalLoop=1;jettySize=auto;html=1;entryX=1.009;entryY=0.862;entryDx=0;entryDy=0;entryPerimeter=0;startArrow=diamondThin;startFill=0;endArrow=none;endFill=0;" parent="1" source="ootQnw3ZIX1wVPfmf1-8-40" target="qJp3A6C8HjUP3sD0QY61-50" edge="1">
                    <mxGeometry relative="1" as="geometry"/>
                </mxCell>
                <mxCell id="ootQnw3ZIX1wVPfmf1-8-49" value="DrawVisitor" style="swimlane;fontStyle=1;align=center;verticalAlign=top;childLayout=stackLayout;horizontal=1;startSize=26;horizontalStack=0;resizeParent=1;resizeParentMax=0;resizeLast=0;collapsible=1;marginBottom=0;" parent="1" vertex="1">
                    <mxGeometry x="-215" y="662" width="160" height="86" as="geometry"/>
                </mxCell>
                <mxCell id="ootQnw3ZIX1wVPfmf1-8-50" value="---" style="text;strokeColor=none;fillColor=none;align=left;verticalAlign=top;spacingLeft=4;spacingRight=4;overflow=hidden;rotatable=0;points=[[0,0.5],[1,0.5]];portConstraint=eastwest;" parent="ootQnw3ZIX1wVPfmf1-8-49" vertex="1">
                    <mxGeometry y="26" width="160" height="26" as="geometry"/>
                </mxCell>
                <mxCell id="ootQnw3ZIX1wVPfmf1-8-51" value="" style="line;strokeWidth=1;fillColor=none;align=left;verticalAlign=middle;spacingTop=-1;spacingLeft=3;spacingRight=3;rotatable=0;labelPosition=right;points=[];portConstraint=eastwest;" parent="ootQnw3ZIX1wVPfmf1-8-49" vertex="1">
                    <mxGeometry y="52" width="160" height="8" as="geometry"/>
                </mxCell>
                <mxCell id="ootQnw3ZIX1wVPfmf1-8-52" value="+ visit(Model)" style="text;strokeColor=none;fillColor=none;align=left;verticalAlign=top;spacingLeft=4;spacingRight=4;overflow=hidden;rotatable=0;points=[[0,0.5],[1,0.5]];portConstraint=eastwest;" parent="ootQnw3ZIX1wVPfmf1-8-49" vertex="1">
                    <mxGeometry y="60" width="160" height="26" as="geometry"/>
                </mxCell>
                <mxCell id="ootQnw3ZIX1wVPfmf1-8-56" style="edgeStyle=orthogonalEdgeStyle;rounded=0;orthogonalLoop=1;jettySize=auto;html=1;startArrow=none;startFill=0;endArrow=open;endFill=0;" parent="1" source="ootQnw3ZIX1wVPfmf1-8-50" target="qJp3A6C8HjUP3sD0QY61-52" edge="1">
                    <mxGeometry relative="1" as="geometry">
                        <Array as="points">
                            <mxPoint x="-250" y="701"/>
                            <mxPoint x="-250" y="701"/>
                        </Array>
                    </mxGeometry>
                </mxCell>
            </root>
        </mxGraphModel>
    </diagram>
</mxfile>